<svg width="64" height="64" viewBox="0 0 64 64" fill="none" xmlns="http://www.w3.org/2000/svg">
<rect width="64" height="64" rx="12" fill="white"/>
<path d="M45.2706 28.7332C45.2706 25.7854 42.8292 23.3959 39.8175 23.3959C39.8175 23.3959 37.1795 23.3962 34.0664 23.3959C32.4999 23.3957 30.9418 21.4895 30.9418 19.5834C30.9418 18.4395 31.3313 17.2961 32.5084 17.2961C36.0108 17.296 39.8175 17.2961 39.8175 17.2961C46.2711 17.2961 51.5028 22.4166 51.5028 28.7332C51.5028 33.9379 47.9504 38.3294 43.0895 39.7145L52.342 49.5456C53.3637 50.6312 52.613 52.4139 51.1224 52.4414L48.1866 52.4958C47.219 52.5137 46.2886 52.1228 45.6242 51.4191L35.0026 40.1702C35.0026 40.1702 34.9057 40.1701 33.7372 40.1702C32.1791 40.1702 30.6211 38.2644 30.6211 36.3577C30.6211 35.214 31.0106 34.0704 32.1791 34.0703C34.5162 34.07 39.8175 34.0705 39.8175 34.0705C42.8292 34.0705 45.2706 31.6809 45.2706 28.7332Z" fill="#D9D9D9"/>
<path d="M31.4898 25.8883C31.4898 22.5666 28.797 19.8738 25.4753 19.8738C25.4753 19.8738 16.8798 19.8741 13.4462 19.8738C11.7184 19.8736 10 17.7256 10 15.5776C10 14.2886 10.4296 13.0001 11.7278 13.0001C15.5908 12.9999 25.4753 13.0001 25.4753 13.0001C32.5932 13.0001 38.3635 18.7703 38.3635 25.8883C38.3635 31.7534 34.4454 36.7022 29.0841 38.263L39.632 49.7138C40.6359 50.8036 39.8821 52.5681 38.4006 52.5961L34.5725 52.6685C33.5915 52.6871 32.6494 52.2855 31.9835 51.5649L20.1647 38.7765C20.1647 38.7765 18.1626 38.7764 16.8737 38.7765C15.1553 38.7765 13.4369 36.6289 13.4369 34.4803C13.4369 33.1915 13.8665 31.9028 15.1553 31.9026C17.7329 31.9023 25.4753 31.9028 25.4753 31.9028C28.797 31.9028 31.4898 29.21 31.4898 25.8883Z" fill="black"/>
</svg>
